<?xml version="1.0" encoding="UTF-8"?>
<svg version="1.1" xmlns="http://www.w3.org/2000/svg" width="327" height="443">
<path d="M0 0 C3.15389771 0.4704387 5.01630622 1.5602571 7.43359375 3.58984375 C8.39676514 4.38769287 8.39676514 4.38769287 9.37939453 5.20166016 C10.05856934 5.7744873 10.73774414 6.34731445 11.4375 6.9375 C12.88038759 8.13286705 14.32441213 9.32686295 15.76953125 10.51953125 C16.84388428 11.40825928 16.84388428 11.40825928 17.93994141 12.31494141 C21.306061 15.06831394 24.75840135 17.70098805 28.21582031 20.33862305 C32.06512533 23.27752377 35.88404388 26.25200716 39.6875 29.25 C46.06023417 34.27163087 52.46186329 39.25548568 58.87182617 44.22949219 C60.29582314 45.33523241 61.71805263 46.44325402 63.13818359 47.55395508 C64.68546258 48.7557035 66.25247453 49.9319935 67.82421875 51.1015625 C70.22511002 53.19641557 71.6226563 55.20471323 73.25 57.9375 C76.87611264 63.84556283 80.78522399 69.52426781 84.75244141 75.20507812 C86.5291873 77.76136694 88.28546647 80.33150485 90.04321289 82.90087891 C98.45593076 95.1892509 107.15918408 107.23955107 116.00976562 119.21582031 C129.12625475 136.98771893 129.12625475 136.98771893 129.12025452 143.0239563 C129.12231651 144.61835541 129.12231651 144.61835541 129.12442017 146.2449646 C129.12082489 147.4159671 129.11722961 148.5869696 129.11352539 149.79345703 C129.11367142 151.02269897 129.11381744 152.25194092 129.1139679 153.51843262 C129.11338954 156.89426342 129.10836537 160.27003348 129.10139394 163.64585352 C129.09515358 167.17193073 129.09455606 170.6980087 129.09336853 174.22409058 C129.09025723 180.90348324 129.08204655 187.58285959 129.07201904 194.26224506 C129.06085166 201.86553025 129.05534588 209.46881621 129.05032361 217.07210755 C129.03986378 232.71474783 129.02226822 248.35737181 129 264 C126 264 126 264 124.37890625 262.59375 C118.93236011 256.31558069 113.95834074 249.73042207 109.015625 243.0546875 C106.35020352 239.45619916 103.62428074 235.90955564 100.875 232.375 C96.17883641 226.31075849 91.7194346 220.09100567 87.29394531 213.82763672 C84.99861433 210.58558997 82.68562173 207.35615692 80.375 204.125 C79.52857224 202.94015673 78.68221097 201.75526597 77.8359375 200.5703125 C77.23007813 199.72210938 76.62421875 198.87390625 76 198 C75.22638623 200.74463392 74.87722576 203.17190276 74.88647461 206.02029419 C74.8865451 206.81068588 74.8866156 207.60107758 74.88668823 208.41542053 C74.89185455 209.27364914 74.89702087 210.13187775 74.90234375 211.01611328 C74.90380402 211.92722366 74.90526428 212.83833405 74.9067688 213.77705383 C74.91057276 215.75500149 74.9166872 217.73294575 74.92483521 219.71088028 C74.9376112 222.84761485 74.9441184 225.98430704 74.94897461 229.12106323 C74.96234127 236.91677019 74.98646673 244.71243719 75.01037598 252.50811768 C75.03016702 259.08863986 75.04578734 265.66914668 75.05593872 272.24969101 C75.06238581 275.32828272 75.07489754 278.40681099 75.08764648 281.48538208 C75.09128286 283.39276068 75.09463411 285.30013986 75.09765625 287.20751953 C75.10282257 288.05360275 75.10798889 288.89968597 75.11331177 289.77140808 C75.11468578 305.50653749 75.11468578 305.50653749 72.390625 309.15625 C71.68421875 309.5996875 70.9778125 310.043125 70.25 310.5 C69.4353125 311.05171875 68.620625 311.6034375 67.78125 312.171875 C66.8634375 312.77515625 65.945625 313.3784375 65 314 C62.90218233 315.56795651 60.82054652 317.14712638 58.75 318.75 C58.20214844 319.16934814 57.65429688 319.58869629 57.08984375 320.02075195 C52.4677149 323.577834 48.01962478 327.31865095 43.58813477 331.10888672 C39.99851585 334.17392327 36.34185229 337.10954396 32.59375 339.9765625 C28.20019596 343.404064 23.8972276 346.9439751 19.58276367 350.47021484 C10.35614132 358 10.35614132 358 8 358 C7.67 358.99 7.34 359.98 7 361 C4.625 362.75 4.625 362.75 2 364 C1.01 363.67 0.02 363.34 -1 363 C-1.02286434 316.90036248 -1.04049719 270.80072555 -1.05106533 224.70108349 C-1.05231611 219.26467088 -1.05361043 213.82825829 -1.05493164 208.3918457 C-1.05519395 207.30950547 -1.05545626 206.22716523 -1.05572652 205.1120268 C-1.06008366 187.56254784 -1.06797145 170.01307213 -1.0771528 152.4635951 C-1.08648812 134.47040303 -1.09205535 116.47721266 -1.09408849 98.48401827 C-1.09546398 87.37179712 -1.09981592 76.25958519 -1.10791647 65.14736687 C-1.11318243 57.53825587 -1.11480464 49.92914965 -1.11350138 42.32003696 C-1.11285776 37.92305318 -1.11387815 33.52608555 -1.11920547 29.12910461 C-1.12403905 25.11054193 -1.12433893 21.09200639 -1.12089889 17.07344251 C-1.12047316 15.61313773 -1.12176925 14.15283132 -1.12488318 12.69252981 C-1.12884659 10.72053575 -1.12615662 8.74853157 -1.12304783 6.77653599 C-1.12342755 5.67724563 -1.12380727 4.57795528 -1.1241985 3.44535309 C-1 1 -1 1 0 0 Z " fill="#3885BB" transform="translate(53,36)"/>
<path d="M0 0 C1.32 0.33 2.64 0.66 4 1 C4 121.12 4 241.24 4 365 C-1.20981887 363.95803623 -3.41698445 362.32910604 -7.1875 358.9375 C-8.3480677 357.92475971 -9.50953328 356.91304747 -10.671875 355.90234375 C-11.23970703 355.40460449 -11.80753906 354.90686523 -12.39257812 354.39404297 C-17.16566697 350.25456282 -22.19371814 346.41248761 -27.16796875 342.51953125 C-28.3203993 341.61729835 -29.47274036 340.71495116 -30.625 339.8125 C-31.5065979 339.12220703 -31.5065979 339.12220703 -32.40600586 338.41796875 C-37.65987963 334.29208907 -42.84342241 330.08282837 -48.01342773 325.85253906 C-51.29475488 323.17380686 -54.5924811 320.52524941 -57.94921875 317.94140625 C-58.8937793 317.21244141 -58.8937793 317.21244141 -59.85742188 316.46875 C-61.03260767 315.56572569 -62.21197105 314.66809777 -63.39648438 313.77734375 C-72.34952807 306.89205259 -72.34952807 306.89205259 -73.45238876 301.98864174 C-73.6219006 299.58763273 -73.63003455 297.23401781 -73.58349609 294.82739258 C-73.58580986 293.91363326 -73.58812363 292.99987394 -73.59050751 292.05842495 C-73.5920754 289.00323106 -73.55776306 285.94951695 -73.5234375 282.89453125 C-73.51694885 280.70490024 -73.51261733 278.51526194 -73.51028442 276.32562256 C-73.49749084 270.39018709 -73.45331259 264.45535277 -73.40322876 258.52013016 C-73.35605301 252.32395874 -73.33719186 246.12769667 -73.31445312 239.93139648 C-73.2553189 225.60843152 -73.14877145 211.28600511 -73.03196716 196.96340942 C-73.00009146 193.01133976 -72.96958456 189.05926199 -72.9395752 185.10717773 C-72.68862329 152.07075765 -72.37830111 119.03520558 -72 86 C-73.53611938 86.41137207 -73.53611938 86.41137207 -75.10327148 86.83105469 C-76.46337218 87.19468661 -77.82347998 87.55829198 -79.18359375 87.921875 C-79.85660522 88.10218262 -80.5296167 88.28249023 -81.22302246 88.46826172 C-95.65987826 92.32513445 -95.65987826 92.32513445 -102 92 C-98.7719149 84.93268746 -92.93853215 79.79443168 -87.1015625 74.84765625 C-84.79748895 72.8219559 -82.65248842 70.68577433 -80.5 68.5 C-76.49305055 64.45216331 -72.34214473 60.68267224 -68 57 C-66.99710938 56.14277344 -65.99421875 55.28554687 -64.9609375 54.40234375 C-60.05077648 50.21642966 -55.12414108 46.06511568 -50.0625 42.0625 C-44.16055235 37.38296222 -38.48545319 32.44555269 -32.78027344 27.53027344 C-25.08907218 20.91913117 -17.33097824 14.39320294 -9.44140625 8.01953125 C-7.24408543 6.20190746 -5.15652926 4.30897607 -3.0625 2.375 C-2.051875 1.59125 -1.04125 0.8075 0 0 Z " fill="#3284BC" transform="translate(271,35)"/>
<path d="M0 0 C0.66 0 1.32 0 2 0 C3.00739746 1.66220581 4.00522955 3.33020674 5 5 C6.55750943 6.85626444 8.16089583 8.65830661 9.79296875 10.44921875 C11 12 11 12 11 14 C11.66 14 12.32 14 13 14 C14.30932617 15.41772461 14.30932617 15.41772461 15.79296875 17.40234375 C16.60954956 18.48394775 16.60954956 18.48394775 17.44262695 19.58740234 C18.01843506 20.36293457 18.59424316 21.1384668 19.1875 21.9375 C20.37212348 23.51192371 21.55701659 25.08614459 22.7421875 26.66015625 C23.30905273 27.41699707 23.87591797 28.17383789 24.45996094 28.95361328 C26.21429249 31.28474947 28.00538948 33.58459249 29.8125 35.875 C32.35172333 39.13790198 34.84728246 42.43076066 37.3125 45.75 C37.96863281 46.63171875 38.62476563 47.5134375 39.30078125 48.421875 C40.93061729 50.89472969 42.01373008 53.21641587 43 56 C43.66 56 44.32 56 45 56 C46.26171875 57.3984375 46.26171875 57.3984375 47.6875 59.375 C48.22117188 60.10976562 48.75484375 60.84453125 49.3046875 61.6015625 C51.57637415 64.81542334 53.82309614 68.046346 56.0703125 71.27734375 C62.05916326 80.07114768 62.05916326 80.07114768 69.09179688 87.9757843 C71.97666229 92.54786321 71.62215174 96.84212517 71.64453125 102.14916992 C71.66439087 103.27500488 71.68425049 104.40083984 71.70471191 105.56079102 C71.76311379 109.28411661 71.79039115 113.00676045 71.8125 116.73046875 C71.83551485 119.32253534 71.85854568 121.91460178 71.8815918 124.50666809 C71.91824184 129.24862453 71.94345083 133.99030935 71.9555788 138.73238295 C71.97348009 145.69183499 72.04356646 152.64813552 72.15958118 159.60662955 C72.25683075 165.65150176 72.28737253 171.69489545 72.29428101 177.74062538 C72.30636071 180.30312561 72.33838837 182.86561466 72.39102173 185.42760277 C72.79343924 206.52350115 72.79343924 206.52350115 68.41552734 211.71206665 C65.58261857 214.35852045 62.41000195 216.16533929 59 218 C56.01709559 220.2614483 53.50457757 222.3926638 51.2109375 225.34375 C47.82267429 229.4053358 43.8772884 232.39023037 39.625 235.5 C34.54639214 239.25415078 29.66296647 243.09825496 24.94189453 247.29541016 C21.91920909 249.94871538 18.78405938 252.44948264 15.625 254.9375 C14.70267578 255.67709961 14.70267578 255.67709961 13.76171875 256.43164062 C9.23816748 260 9.23816748 260 7 260 C6.67 260.99 6.34 261.98 6 263 C4.02 263.33 2.04 263.66 0 264 C0 176.88 0 89.76 0 0 Z " fill="#1A245E" transform="translate(54,134)"/>
<path d="M0 0 C2 2 2 2 2.24609566 4.21388435 C2.24333028 5.60486997 2.24333028 5.60486997 2.24050903 7.0239563 C2.24325836 8.08688904 2.24600769 9.14982178 2.24884033 10.2449646 C2.2380545 12.00146835 2.2380545 12.00146835 2.22705078 13.79345703 C2.22734283 15.02269897 2.22763489 16.25194092 2.22793579 17.51843262 C2.22677906 20.8943349 2.21673089 24.26999425 2.20278788 27.64585352 C2.19030718 31.1719253 2.18911212 34.69800012 2.18673706 38.22409058 C2.18051444 44.90350675 2.1640931 51.58285766 2.14403808 58.26224506 C2.12170335 65.86552332 2.11069177 73.46880466 2.10064721 81.07210755 C2.07972751 96.7147762 2.04453641 112.35737969 2 128 C-1 128 -1 128 -2.62109375 126.59375 C-8.06763989 120.31558069 -13.04165926 113.73042207 -17.984375 107.0546875 C-20.64979648 103.45619916 -23.37571926 99.90955564 -26.125 96.375 C-30.82116359 90.31075849 -35.2805654 84.09100567 -39.70605469 77.82763672 C-42.00138567 74.58558997 -44.31437827 71.35615692 -46.625 68.125 C-47.47142776 66.94015673 -48.31778903 65.75526597 -49.1640625 64.5703125 C-49.76992187 63.72210938 -50.37578125 62.87390625 -51 62 C-51.77361377 64.74463392 -52.12277424 67.17190276 -52.11352539 70.02029419 C-52.1134549 70.81068588 -52.1133844 71.60107758 -52.11331177 72.41542053 C-52.10814545 73.27364914 -52.10297913 74.13187775 -52.09765625 75.01611328 C-52.09546585 76.38277885 -52.09546585 76.38277885 -52.0932312 77.77705383 C-52.08942724 79.75500149 -52.0833128 81.73294575 -52.07516479 83.71088028 C-52.0623888 86.84761485 -52.0558816 89.98430704 -52.05102539 93.12106323 C-52.03765873 100.91677019 -52.01353327 108.71243719 -51.98962402 116.50811768 C-51.96983298 123.08863986 -51.95421266 129.66914668 -51.94406128 136.24969101 C-51.93761419 139.32828272 -51.92510246 142.40681099 -51.91235352 145.48538208 C-51.90871714 147.39276068 -51.90536589 149.30013986 -51.90234375 151.20751953 C-51.89717743 152.05360275 -51.89201111 152.89968597 -51.88668823 153.77140808 C-51.8853096 169.55936219 -51.8853096 169.55936219 -54.75 173.26171875 C-55.4925 173.73222656 -56.235 174.20273437 -57 174.6875 C-57.80308594 175.22890625 -58.60617188 175.7703125 -59.43359375 176.328125 C-60.28050781 176.87984375 -61.12742187 177.4315625 -62 178 C-63.69885355 179.29777083 -65.38693662 180.60979526 -67.0625 181.9375 C-67.81660156 182.52402344 -68.57070312 183.11054688 -69.34765625 183.71484375 C-70.16556641 184.35099609 -70.16556641 184.35099609 -71 185 C-71.66 184.67 -72.32 184.34 -73 184 C-71.85732126 182.97563677 -70.71059409 181.95579008 -69.5625 180.9375 C-68.60537109 180.08478516 -68.60537109 180.08478516 -67.62890625 179.21484375 C-65 177 -65 177 -62.81366825 175.65798092 C-57.9198931 172.46656291 -57.9198931 172.46656291 -55.16412163 167.49377632 C-54.85274377 164.45273648 -54.82068664 161.52152879 -54.88647461 158.46508789 C-54.8754068 157.32289795 -54.86433899 156.18070801 -54.85293579 155.00390625 C-54.82699577 151.24228745 -54.86432359 147.48412664 -54.90234375 143.72265625 C-54.89668987 141.10948062 -54.88707803 138.49631081 -54.87367249 135.88316345 C-54.84869567 129.71709903 -54.8692767 123.55207197 -54.90644604 117.38610309 C-54.94654779 110.36299887 -54.93552855 103.34026134 -54.92032993 96.31709301 C-54.89022164 81.87781224 -54.92393811 67.43910705 -55 53 C-50.35771474 54.54742842 -47.85108881 58.12308519 -45 62 C-44.27954236 63.9812585 -43.59218657 65.97669589 -43 68 C-41.515 68.495 -41.515 68.495 -40 69 C-40 69.99 -40 70.98 -40 72 C-39.01 71.67 -38.02 71.34 -37 71 C-36 72 -36 72 -35.9375 74.5625 C-35.958125 75.366875 -35.97875 76.17125 -36 77 C-35.34 77 -34.68 77 -34 77 C-34 77.99 -34 78.98 -34 80 C-33.34 80 -32.68 80 -32 80 C-32 80.66 -32 81.32 -32 82 C-31.195625 82.185625 -31.195625 82.185625 -30.375 82.375 C-27.5361714 83.12206016 -24.77776798 84.05303364 -22 85 C-22.33 85.66 -22.66 86.32 -23 87 C-23.74276031 88.97080157 -23.74276031 88.97080157 -24 91 C-22.15811388 93.05270463 -22.15811388 93.05270463 -20 94 C-17 100.23076923 -17 100.23076923 -17 104 C-13.49461443 105.96301592 -9.86648272 106.95902388 -6 108 C-6 108.99 -6 109.98 -6 111 C-7.32 111 -8.64 111 -10 111 C-8.43006215 116.02380113 -5.39884258 120.0469983 -2 124 C-1.34 124.33 -0.68 124.66 0 125 C0 83.75 0 42.5 0 0 Z " fill="#404B73" transform="translate(180,172)"/>
<path d="M0 0 C0.66 0.33 1.32 0.66 2 1 C1.30132812 1.59167969 0.60265625 2.18335937 -0.1171875 2.79296875 C-1.02726562 3.58316406 -1.93734375 4.37335938 -2.875 5.1875 C-3.77992188 5.96480469 -4.68484375 6.74210937 -5.6171875 7.54296875 C-8.04004024 10.0412874 -8.80928834 11.80029025 -10 15 C-11.55078125 16.58984375 -11.55078125 16.58984375 -13.3125 17.9375 C-16.71638845 20.68325617 -19.2706292 23.5882865 -22 27 C-22.98290968 28.01680311 -23.97334787 29.02738219 -25 30 C-24.34 30.66 -23.68 31.32 -23 32 C-19.63576801 32.02106594 -19.63576801 32.02106594 -15.875 31.625 C-14.59367187 31.51414062 -13.31234375 31.40328125 -11.9921875 31.2890625 C-11.00476563 31.19367188 -10.01734375 31.09828125 -9 31 C-7.38990728 37.13432019 -6.93770046 42.26325489 -7.7109375 48.5390625 C-8.17953317 54.1495458 -8.04073369 59.76181608 -7.96240234 65.38793945 C-7.95418457 66.25378662 -7.9459668 67.11963379 -7.9375 68.01171875 C-7.92589844 68.77959717 -7.91429687 69.54747559 -7.90234375 70.33862305 C-8 73 -8 73 -8.48413086 76.37573242 C-9.33600864 82.87433348 -9.23943907 89.43287839 -9.31640625 95.9765625 C-9.33745553 97.50248065 -9.35877483 99.02839509 -9.38034058 100.55430603 C-9.44905906 105.57778526 -9.50689356 110.60136051 -9.5625 115.625 C-9.57690565 116.91444078 -9.57690565 116.91444078 -9.59160233 118.22993088 C-9.71562164 129.43141187 -9.82092937 140.63301263 -9.91720295 151.83476353 C-9.98123108 159.17886598 -10.05887603 166.52276426 -10.13964844 173.86669922 C-10.24555625 183.60365076 -10.32548121 193.34050607 -10.37844372 203.0778923 C-10.40746411 208.33802988 -10.44643548 213.59763994 -10.51004028 218.85748291 C-10.5695649 223.83199056 -10.60009628 228.80585448 -10.60876846 233.78070259 C-10.61688991 235.61627334 -10.63531423 237.45183174 -10.66479111 239.28718376 C-10.70358146 241.80756116 -10.7048516 244.32534392 -10.69702148 246.84594727 C-10.71702493 247.57424051 -10.73702837 248.30253376 -10.75763798 249.0528965 C-10.68130317 254.44394388 -8.85447423 257.02359958 -5.28799534 260.75541592 C-4.86295688 261.16612866 -4.43791842 261.57684141 -4 262 C-8.00649616 260.16022495 -10.84617444 257.89217504 -13 254 C-13.68387818 250.92943614 -13.64412641 247.96274476 -13.58349609 244.82739258 C-13.58580986 243.91363326 -13.58812363 242.99987394 -13.59050751 242.05842495 C-13.5920754 239.00323106 -13.55776306 235.94951695 -13.5234375 232.89453125 C-13.51694885 230.70490024 -13.51261733 228.51526194 -13.51028442 226.32562256 C-13.49749084 220.39018709 -13.45331259 214.45535277 -13.40322876 208.52013016 C-13.35605301 202.32395874 -13.33719186 196.12769667 -13.31445312 189.93139648 C-13.2553189 175.60843152 -13.14877145 161.28600511 -13.03196716 146.96340942 C-13.00009146 143.01133976 -12.96958456 139.05926199 -12.9395752 135.10717773 C-12.68862329 102.07075765 -12.37830111 69.03520558 -12 36 C-13.53611938 36.41137207 -13.53611938 36.41137207 -15.10327148 36.83105469 C-16.46337218 37.19468661 -17.82347998 37.55829198 -19.18359375 37.921875 C-19.85660522 38.10218262 -20.5296167 38.28249023 -21.22302246 38.46826172 C-35.65987826 42.32513445 -35.65987826 42.32513445 -42 42 C-38.7719149 34.93268746 -32.93853215 29.79443168 -27.1015625 24.84765625 C-24.79748895 22.8219559 -22.65248842 20.68577433 -20.5 18.5 C-16.49898762 14.45094802 -12.32387258 10.6977149 -8 7 C-6.49856508 5.68914172 -4.99853076 4.37667724 -3.5 3.0625 C-2.33333333 2.04166667 -1.16666667 1.02083333 0 0 Z " fill="#8FB9D3" transform="translate(211,85)"/>
<path d="M0 0 C3.15389771 0.4704387 5.01630622 1.5602571 7.43359375 3.58984375 C8.07675537 4.12246826 8.71991699 4.65509277 9.38256836 5.20385742 C10.39975952 6.0620105 10.39975952 6.0620105 11.4375 6.9375 C12.86330825 8.12132907 14.29041146 9.30360006 15.71875 10.484375 C16.78996094 11.37092773 16.78996094 11.37092773 17.8828125 12.27539062 C22.0380119 15.66011486 26.33363519 18.85994 30.62109375 22.07421875 C33 24 33 24 34 26 C32.5410574 25.52269162 31.08286504 25.04308958 29.625 24.5625 C28.81289062 24.29566406 28.00078125 24.02882813 27.1640625 23.75390625 C25 23 25 23 23 22 C23 21.01 23 20.02 23 19 C22.071875 18.5359375 22.071875 18.5359375 21.125 18.0625 C19.75 17.375 18.375 16.6875 17 16 C16.67 15.01 16.34 14.02 16 13 C13.36 12.67 10.72 12.34 8 12 C8.33 10.68 8.66 9.36 9 8 C6.36 6.02 3.72 4.04 1 2 C1 120.8 1 239.6 1 362 C1.66 362.33 2.32 362.66 3 363 C1.68 363 0.36 363 -1 363 C-1.02286434 316.90036248 -1.04049719 270.80072555 -1.05106533 224.70108349 C-1.05231611 219.26467088 -1.05361043 213.82825829 -1.05493164 208.3918457 C-1.05519395 207.30950547 -1.05545626 206.22716523 -1.05572652 205.1120268 C-1.06008366 187.56254784 -1.06797145 170.01307213 -1.0771528 152.4635951 C-1.08648812 134.47040303 -1.09205535 116.47721266 -1.09408849 98.48401827 C-1.09546398 87.37179712 -1.09981592 76.25958519 -1.10791647 65.14736687 C-1.11318243 57.53825587 -1.11480464 49.92914965 -1.11350138 42.32003696 C-1.11285776 37.92305318 -1.11387815 33.52608555 -1.11920547 29.12910461 C-1.12403905 25.11054193 -1.12433893 21.09200639 -1.12089889 17.07344251 C-1.12047316 15.61313773 -1.12176925 14.15283132 -1.12488318 12.69252981 C-1.12884659 10.72053575 -1.12615662 8.74853157 -1.12304783 6.77653599 C-1.12342755 5.67724563 -1.12380727 4.57795528 -1.1241985 3.44535309 C-1 1 -1 1 0 0 Z " fill="#A2B8C9" transform="translate(53,36)"/>
<path d="M0 0 C1.32 0.33 2.64 0.66 4 1 C4 121.12 4 241.24 4 365 C-1 364 -1 364 -2.8125 361.9375 C-3.204375 361.298125 -3.59625 360.65875 -4 360 C-2 361 0 362 2 363 C2 243.87 2 124.74 2 2 C-0.97 4.31 -3.94 6.62 -7 9 C-7.99 9 -8.98 9 -10 9 C-8.43122326 7.4641556 -6.84443846 5.94668669 -5.25 4.4375 C-4.36828125 3.59058594 -3.4865625 2.74367187 -2.578125 1.87109375 C-1.72734375 1.25363281 -0.8765625 0.63617188 0 0 Z " fill="#BCCDE3" transform="translate(271,35)"/>
<path d="M0 0 C0 36.63 0 73.26 0 111 C-0.66 111 -1.32 111 -2 111 C-2.33 76.02 -2.66 41.04 -3 5 C-4.98 6.65 -6.96 8.3 -9 10 C-9.9075 10.350625 -10.815 10.70125 -11.75 11.0625 C-14.61167183 12.25486326 -14.73838215 13.24021096 -16 16 C-17.62449243 17.70779973 -19.29220027 19.37550757 -21 21 C-21.556875 21.598125 -22.11375 22.19625 -22.6875 22.8125 C-24 24 -24 24 -26 24 C-27.68933922 25.6436814 -29.35259924 27.3142876 -31 29 C-35.64864865 33 -35.64864865 33 -38 33 C-38 33.66 -38 34.32 -38 35 C-37.34 35.33 -36.68 35.66 -36 36 C-41.625 41 -41.625 41 -45 41 C-50.09148205 42.40601596 -54.05318507 44.42319897 -58 48 C-58.66 47.67 -59.32 47.34 -60 47 C-51.57439745 39.76181371 -43.12689436 32.55105477 -34.63964844 25.38525391 C-32.92793816 23.93911869 -31.21768266 22.49127909 -29.5078125 21.04296875 C-28.9310376 20.55449463 -28.3542627 20.06602051 -27.76000977 19.56274414 C-26.66923685 18.63888944 -25.57857029 17.71490915 -24.48803711 16.79077148 C-22.99348871 15.52544978 -21.49675899 14.26270601 -20 13 C-19.4635083 12.53875732 -18.9270166 12.07751465 -18.37426758 11.60229492 C-14.26713364 8.10274371 -14.26713364 8.10274371 -11.5625 7.0625 C-8.28612204 5.70400182 -6.13410047 3.63648336 -3.55078125 1.2421875 C-2 0 -2 0 0 0 Z " fill="#44A9CF" transform="translate(273,37)"/>
<path d="M0 0 C2 2 2 2 2.24609566 4.21388435 C2.24333028 5.60486997 2.24333028 5.60486997 2.24050903 7.0239563 C2.24325836 8.08688904 2.24600769 9.14982178 2.24884033 10.2449646 C2.24164978 11.4159671 2.23445923 12.5869696 2.22705078 13.79345703 C2.22734283 15.02269897 2.22763489 16.25194092 2.22793579 17.51843262 C2.22677906 20.8943349 2.21673089 24.26999425 2.20278788 27.64585352 C2.19030718 31.1719253 2.18911212 34.69800012 2.18673706 38.22409058 C2.18051444 44.90350675 2.1640931 51.58285766 2.14403808 58.26224506 C2.12170335 65.86552332 2.11069177 73.46880466 2.10064721 81.07210755 C2.07972751 96.7147762 2.04453641 112.35737969 2 128 C-1 128 -1 128 -2.62109375 126.59375 C-8.17041534 120.19711264 -13.23704097 113.47959979 -18.265625 106.671875 C-20.44436469 103.7255904 -22.686399 100.84242409 -25 98 C-24.505 97.01 -24.505 97.01 -24 96 C-23.5875 96.474375 -23.175 96.94875 -22.75 97.4375 C-20.817815 99.16266518 -19.51807725 99.56584875 -17 100 C-17 101.32 -17 102.64 -17 104 C-13.49461443 105.96301592 -9.86648272 106.95902388 -6 108 C-6 108.99 -6 109.98 -6 111 C-7.32 111 -8.64 111 -10 111 C-8.43006215 116.02380113 -5.39884258 120.0469983 -2 124 C-1.34 124.33 -0.68 124.66 0 125 C0 83.75 0 42.5 0 0 Z " fill="#99AEC7" transform="translate(180,172)"/>
<path d="M0 0 C0.33 0 0.66 0 1 0 C1.17876086 13.77069343 1.34411441 27.54152872 1.5 41.3125 C1.51187725 42.36112213 1.5237545 43.40974426 1.53599167 44.49014282 C1.9510619 81.49387739 2.08914934 118.49406134 2.0625 155.5 C2.06164398 156.69730869 2.06078796 157.89461739 2.05990601 159.12820816 C2.04866061 173.75215447 2.02880628 188.37607802 2 203 C2.66 203.33 3.32 203.66 4 204 C2.68 204 1.36 204 0 204 C0 136.68 0 69.36 0 0 Z " fill="#C8CDD6" transform="translate(52,195)"/>
<path d="M0 0 C0.33 0 0.66 0 1 0 C1.96092899 17.65530978 2.12192542 35.25899748 2.0625 52.9375 C2.05746838 55.57877518 2.05290845 58.2200513 2.04882812 60.86132812 C2.03796933 67.24090648 2.02136643 73.62044861 2 80 C2.33 80 2.66 80 3 80 C3.0272415 81.41655793 3.04650467 82.83327045 3.0625 84.25 C3.07410156 85.03890625 3.08570313 85.8278125 3.09765625 86.640625 C3 89 3 89 2.5 90.8359375 C1.9338597 93.2862635 1.88701496 95.47045356 1.90234375 97.984375 C1.90556641 98.91894531 1.90878906 99.85351562 1.91210938 100.81640625 C1.92048828 101.78449219 1.92886719 102.75257813 1.9375 103.75 C1.94201172 104.73355469 1.94652344 105.71710938 1.95117188 106.73046875 C1.96293517 109.15370791 1.97937316 111.57682273 2 114 C2.64195312 114.29003906 3.28390625 114.58007812 3.9453125 114.87890625 C6 116 6 116 6.875 117.9375 C8.52363667 120.96000056 10.92402005 121.66261741 14 123 C13.67 123.99 13.34 124.98 13 126 C8.05407346 125.12765037 4.77072441 122.62510887 1.15438843 119.24154663 C-3.50303214 112.23387534 -2.21898571 103.444516 -2.01171875 95.33203125 C-1.99556337 93.29012426 -1.98374502 91.24817885 -1.97602844 89.20622253 C-1.94360569 83.83276089 -1.85044107 78.46199424 -1.74493408 73.08953857 C-1.65040716 67.6960798 -1.61675666 62.30228606 -1.57617188 56.90820312 C-1.40655901 37.91657445 -0.96510304 18.96906152 0 0 Z " fill="#3B6FA4" transform="translate(201,224)"/>
<path d="M0 0 C0.66 0 1.32 0 2 0 C1.67 86.46 1.34 172.92 1 262 C2.98 261.34 4.96 260.68 7 260 C6.67 260.99 6.34 261.98 6 263 C4.02 263.33 2.04 263.66 0 264 C0 176.88 0 89.76 0 0 Z " fill="#2C335F" transform="translate(54,134)"/>
<path d="M0 0 C3.28652183 1.09550728 3.64578632 1.52727115 5.49609375 4.25390625 C5.9667627 4.93614258 6.43743164 5.61837891 6.92236328 6.32128906 C7.4223584 7.06088867 7.92235352 7.80048828 8.4375 8.5625 C13.16681006 15.43324634 18.0472413 22.14613716 23.16577148 28.73266602 C25.69662891 32.04072605 27.69718501 34.9842644 29 39 C24.39652385 34.7178986 20.80889176 29.89237716 17.125 24.8125 C16.50802246 23.96840576 15.89104492 23.12431152 15.25537109 22.25463867 C11.09808563 16.55332839 6.98304473 10.82482857 3 5 C2.22638623 7.74463392 1.87722576 10.17190276 1.88647461 13.02029419 C1.8865451 13.81068588 1.8866156 14.60107758 1.88668823 15.41542053 C1.89185455 16.27364914 1.89702087 17.13187775 1.90234375 18.01611328 C1.90453415 19.38277885 1.90453415 19.38277885 1.9067688 20.77705383 C1.91057276 22.75500149 1.9166872 24.73294575 1.92483521 26.71088028 C1.9376112 29.84761485 1.9441184 32.98430704 1.94897461 36.12106323 C1.96234127 43.91677019 1.98646673 51.71243719 2.01037598 59.50811768 C2.03016702 66.08863986 2.04578734 72.66914668 2.05593872 79.24969101 C2.06238581 82.32828272 2.07489754 85.40681099 2.08764648 88.48538208 C2.09128286 90.39276068 2.09463411 92.30013986 2.09765625 94.20751953 C2.10282257 95.05360275 2.10798889 95.89968597 2.11331177 96.77140808 C2.1146904 112.55936219 2.1146904 112.55936219 -0.75 116.26171875 C-1.4925 116.73222656 -2.235 117.20273437 -3 117.6875 C-3.80308594 118.22890625 -4.60617188 118.7703125 -5.43359375 119.328125 C-6.28050781 119.87984375 -7.12742187 120.4315625 -8 121 C-9.69885355 122.29777083 -11.38693662 123.60979526 -13.0625 124.9375 C-13.81660156 125.52402344 -14.57070312 126.11054688 -15.34765625 126.71484375 C-16.16556641 127.35099609 -16.16556641 127.35099609 -17 128 C-17.66 127.67 -18.32 127.34 -19 127 C-17.87777151 125.99689073 -16.75196391 124.99778623 -15.625 124 C-14.92865448 123.35897339 -14.23230896 122.71794678 -13.51486206 122.05749512 C-11 120 -11 120 -8.40286255 118.74816895 C-4.92607995 116.86433907 -3.22044779 115.3121158 -1 112 C0.99478758 103.83771709 0.30178474 95.05317922 0.1953125 86.71875 C0.19910139 84.21910587 0.20729204 81.71946486 0.21969604 79.21984863 C0.23835686 73.32633412 0.21282615 67.434324 0.165573 61.54099703 C0.10918828 54.16787975 0.12196914 46.79514683 0.1328125 39.421875 C0.14382046 26.28080814 0.09372126 13.14071602 0 0 Z " fill="#BCC2D0" transform="translate(126,229)"/>
<path d="M0 0 C0.33 0 0.66 0 1 0 C1.79291589 16.01051445 2.13902748 31.97130297 2.09765625 48 C2.09578365 50.1853024 2.09436375 52.37060523 2.09336853 54.5559082 C2.08960947 60.21748074 2.07983849 65.87902628 2.06866455 71.54058838 C2.05830547 77.35387812 2.05384035 83.16717237 2.04882812 88.98046875 C2.03820795 100.32032415 2.02121458 111.6601598 2 123 C1.01 122.67 0.02 122.34 -1 122 C-1 121.01 -1 120.02 -1 119 C-1.66 119 -2.32 119 -3 119 C-3 118.01 -3 117.02 -3 116 C-2.01 115.505 -2.01 115.505 -1 115 C-0.67 77.05 -0.34 39.1 0 0 Z " fill="#3C6699" transform="translate(271,275)"/>
<path d="M0 0 C2.16113281 0.38305664 2.16113281 0.38305664 4 1 C4.02343927 22.46322044 4.04103307 43.92643874 4.05181217 65.38966942 C4.05695181 75.35711471 4.06394969 85.32455202 4.07543945 95.29199219 C4.08545795 103.98729604 4.09187036 112.68259411 4.09408849 121.37790358 C4.09538352 125.97498964 4.09839183 130.57205915 4.10573006 135.16913986 C4.11260378 139.51110619 4.11459431 143.85304942 4.11310768 148.19502068 C4.11337898 149.77421762 4.11531589 151.35341547 4.11920547 152.93260765 C4.14506039 163.98811978 3.71221277 174.9675034 3 186 C2.67 186 2.34 186 2 186 C2 125.28 2 64.56 2 2 C-0.97 4.31 -3.94 6.62 -7 9 C-7.99 9 -8.98 9 -10 9 C-8.43122326 7.4641556 -6.84443846 5.94668669 -5.25 4.4375 C-4.36828125 3.59058594 -3.4865625 2.74367187 -2.578125 1.87109375 C-1.72734375 1.25363281 -0.8765625 0.63617188 0 0 Z " fill="#9CCEE4" transform="translate(271,35)"/>
<path d="M0 0 C0.66 0.33 1.32 0.66 2 1 C1.30132812 1.59167969 0.60265625 2.18335937 -0.1171875 2.79296875 C-1.02726562 3.58316406 -1.93734375 4.37335938 -2.875 5.1875 C-3.77992188 5.96480469 -4.68484375 6.74210937 -5.6171875 7.54296875 C-8.04004024 10.0412874 -8.80928834 11.80029025 -10 15 C-11.55078125 16.58984375 -11.55078125 16.58984375 -13.3125 17.9375 C-16.71638845 20.68325617 -19.2706292 23.5882865 -22 27 C-22.98290968 28.01680311 -23.97334787 29.02738219 -25 30 C-24.34 30.99 -23.68 31.98 -23 33 C-26.79992221 34.4413498 -30.55413214 35.8621863 -34.4375 37.0625 C-37.14661184 37.72128811 -37.14661184 37.72128811 -38 40 C-35.69 40 -33.38 40 -31 40 C-31 40.33 -31 40.66 -31 41 C-36.445 41.495 -36.445 41.495 -42 42 C-38.47775807 34.95551614 -33.05545738 29.89352469 -27.1015625 24.84765625 C-24.79748895 22.8219559 -22.65248842 20.68577433 -20.5 18.5 C-16.49898762 14.45094802 -12.32387258 10.6977149 -8 7 C-6.49856508 5.68914172 -4.99853076 4.37667724 -3.5 3.0625 C-2.33333333 2.04166667 -1.16666667 1.02083333 0 0 Z " fill="#88C5DE" transform="translate(211,85)"/>
<path d="M0 0 C0.66 0.33 1.32 0.66 2 1 C-3.25442525 5.76636599 -8.50216911 10.51492743 -14 15 C-13.505 15.99 -13.505 15.99 -13 17 C-18.64524422 22.80205656 -18.64524422 22.80205656 -22 25 C-22.66 25 -23.32 25 -24 25 C-24 25.66 -24 26.32 -24 27 C-23.34 27.33 -22.68 27.66 -22 28 C-27.625 33 -27.625 33 -31 33 C-36.09148205 34.40601596 -40.05318507 36.42319897 -44 40 C-44.66 39.67 -45.32 39.34 -46 39 C-37.57439745 31.76181371 -29.12689436 24.55105477 -20.63964844 17.38525391 C-18.92793816 15.93911869 -17.21768266 14.49127909 -15.5078125 13.04296875 C-14.9310376 12.55449463 -14.3542627 12.06602051 -13.76000977 11.56274414 C-12.66923685 10.63888944 -11.57857029 9.71490915 -10.48803711 8.79077148 C-7.00631866 5.84306237 -3.50754781 2.91685794 0 0 Z " fill="#6EC3E0" transform="translate(259,45)"/>
<path d="M0 0 C3.50627392 1.75313696 6.09334705 3.41630849 9 6 C9 6.66 9 7.32 9 8 C7.68 7.34 6.36 6.68 5 6 C1.75671206 10.33586323 1.58687829 14.14535528 1.65942383 19.37036133 C1.65876671 20.61503677 1.65876671 20.61503677 1.65809631 21.88485718 C1.66018018 24.61749095 1.6834921 27.34950514 1.70703125 30.08203125 C1.71262864 31.98060267 1.71689806 33.87917843 1.71989441 35.77775574 C1.73133194 40.76732409 1.7607898 45.75662919 1.79400635 50.74609375 C1.82473072 55.84045857 1.83840481 60.93486605 1.85351562 66.02929688 C1.88566048 76.01964672 1.93684371 86.00980144 2 96 C1.34 96 0.68 96 0 96 C0 64.32 0 32.64 0 0 Z " fill="#439DC7" transform="translate(54,38)"/>
<path d="M0 0 C2 2 2 2 2.24723816 3.9801178 C2.24581314 4.78984543 2.24438812 5.59957306 2.24291992 6.43383789 C2.24599655 7.35141373 2.24907318 8.26898956 2.25224304 9.21437073 C2.24505753 10.20710495 2.23787201 11.19983917 2.23046875 12.22265625 C2.23001053 13.23847275 2.22955231 14.25428925 2.2290802 15.30088806 C2.22605596 17.45035977 2.21816456 19.59982925 2.20581055 21.74926758 C2.18755624 25.05232442 2.1853008 28.35510112 2.18554688 31.65820312 C2.18063179 33.74218994 2.17480351 35.82617485 2.16796875 37.91015625 C2.16685593 38.9049147 2.1657431 39.89967316 2.16459656 40.92457581 C2.15821671 41.83899948 2.15183685 42.75342316 2.14526367 43.69555664 C2.14145187 44.50448868 2.13764008 45.31342072 2.13371277 46.14686584 C2 48 2 48 1 49 C0.63239269 51.32817964 0.29758419 53.6618385 0 56 C-0.33 56 -0.66 56 -1 56 C-1.02526563 48.18547248 -1.04283105 40.37095542 -1.05493164 32.55639648 C-1.05997383 29.89558519 -1.06680736 27.23477668 -1.07543945 24.57397461 C-1.08751009 20.75894484 -1.09322929 16.94395156 -1.09765625 13.12890625 C-1.10281754 11.93100967 -1.10797882 10.7331131 -1.11329651 9.49891663 C-1.11337204 8.3978508 -1.11344757 7.29678497 -1.11352539 6.16235352 C-1.115746 5.18750504 -1.11796661 4.21265656 -1.12025452 3.20826721 C-1 1 -1 1 0 0 Z " fill="#151C55" transform="translate(56,305)"/>
<path d="M0 0 C3.85329357 1.67007155 6.9437929 4.1998464 10.1875 6.8125 C14.31226583 10.11052753 18.45949338 13.36208449 22.69921875 16.51171875 C23.47692627 17.09268311 24.25463379 17.67364746 25.0559082 18.2722168 C26.58666226 19.41266805 28.12288364 20.54582189 29.66479492 21.67114258 C30.36064697 22.19216553 31.05649902 22.71318848 31.7734375 23.25 C32.39653809 23.70890625 33.01963867 24.1678125 33.66162109 24.640625 C35 26 35 26 35 29 C34.37351563 28.50628906 33.74703125 28.01257813 33.1015625 27.50390625 C32.28429687 26.86324219 31.46703125 26.22257812 30.625 25.5625 C29.81289062 24.92441406 29.00078125 24.28632812 28.1640625 23.62890625 C26.10601894 21.97776453 26.10601894 21.97776453 24 21 C24 21.99 24 22.98 24 24 C23.34 24 22.68 24 22 24 C21.34 23.34 20.68 22.68 20 22 C20 21.01 20 20.02 20 19 C19.34 19 18.68 19 18 19 C16.375 17 16.375 17 15 15 C14.01 15.99 13.02 16.98 12 18 C11.63648437 17.19175781 11.27296875 16.38351563 10.8984375 15.55078125 C7.97252706 9.33134598 5.68296504 4.92395205 0 1 C0 0.67 0 0.34 0 0 Z " fill="#80BEDB" transform="translate(87,62)"/>
<path d="M0 0 C0.99 0.33 1.98 0.66 3 1 C3.2475 1.763125 3.495 2.52625 3.75 3.3125 C5.50397186 7.0835395 8.35610869 8.36288941 12 10 C13.9812585 10.72045764 15.97669589 11.40781343 18 12 C18 12.66 18 13.32 18 14 C18.66 14 19.32 14 20 14 C20 14.66 20 15.32 20 16 C20.66 16 21.32 16 22 16 C22 16.66 22 17.32 22 18 C22.99 17.67 23.98 17.34 25 17 C28 20.625 28 20.625 28 24 C28.66 24 29.32 24 30 24 C29.67 24.66 29.34 25.32 29 26 C23.66339564 24.42732681 19.96894419 20.90432511 15.8125 17.375 C14.29991519 16.10885393 12.78689583 14.8432268 11.2734375 13.578125 C10.54350586 12.96517578 9.81357422 12.35222656 9.06152344 11.72070312 C5.09653593 8.41122515 1.05020378 5.20433812 -3 2 C-2.01 1.34 -1.02 0.68 0 0 Z " fill="#4C689C" transform="translate(240,370)"/>
<path d="M0 0 C0.33 0 0.66 0 1 0 C1 14.85 1 29.7 1 45 C-3.1199169 42.94004155 -4.25782793 41.72509301 -6.8125 38.0625 C-7.43769531 37.18722656 -8.06289062 36.31195313 -8.70703125 35.41015625 C-9.13371094 34.61480469 -9.56039062 33.81945312 -10 33 C-9.67 32.01 -9.34 31.02 -9 30 C-8.01 30.33 -7.02 30.66 -6 31 C-6 31.66 -6 32.32 -6 33 C-5.34 33.33 -4.68 33.66 -4 34 C-3.34 34.66 -2.68 35.32 -2 36 C-1.00414794 28.64781093 -0.91376447 21.47444368 -1 14.0625 C-1.02542003 11.82426614 -1.04648339 9.58597715 -1.0625 7.34765625 C-1.07410156 6.36804932 -1.08570313 5.38844238 -1.09765625 4.37915039 C-1 2 -1 2 0 0 Z " fill="#2D467A" transform="translate(179,252)"/>
<path d="M0 0 C1.485 0.99 1.485 0.99 3 2 C3.2864952 4.60287362 3.37848245 6.96705374 3.34057617 9.57080078 C3.34101425 10.35137848 3.34145233 11.13195618 3.34190369 11.93618774 C3.33980941 14.52281489 3.31644883 17.10879824 3.29296875 19.6953125 C3.28737506 21.48607021 3.28310389 23.2768325 3.28010559 25.06759644 C3.26863895 29.78595608 3.23915625 34.50403964 3.20599365 39.22229004 C3.17533187 44.03487411 3.1616086 48.8475027 3.14648438 53.66015625 C3.11428819 63.10689228 3.06306998 72.5534232 3 82 C0.72984039 78.59476058 0.7718867 77.46815365 0.83984375 73.484375 C0.85080078 72.39769531 0.86175781 71.31101562 0.87304688 70.19140625 C0.89431641 69.05574219 0.91558594 67.92007813 0.9375 66.75 C1.13487179 56.82803708 1.13487179 56.82803708 0 47 C0.66 47 1.32 47 2 47 C1.88141807 41.27070094 1.75714775 35.54156355 1.62768555 29.8125 C1.58446764 27.86494266 1.54278369 25.91735063 1.50268555 23.96972656 C1.44466342 21.16460738 1.38106216 18.35966067 1.31640625 15.5546875 C1.29969376 14.68883026 1.28298126 13.82297302 1.26576233 12.93087769 C1.15867445 8.52608092 0.86678481 4.33700867 0 0 Z " fill="#356297" transform="translate(177,170)"/>
<path d="M0 0 C0.66 0.33 1.32 0.66 2 1 C-1.75 4 -1.75 4 -4 4 C-4.165 4.680625 -4.33 5.36125 -4.5 6.0625 C-6.4128434 9.808485 -8.99518219 11.81704732 -12.22265625 14.44921875 C-14.10499903 15.89338958 -14.10499903 15.89338958 -15 18 C-16.32796291 18.35412344 -17.66216607 18.68521554 -19 19 C-19.99 19.66 -20.98 20.32 -22 21 C-21.55327658 16.30113145 -19.90393591 14.52784833 -16.375 11.5 C-15.47265625 10.72527344 -14.5703125 9.95054688 -13.640625 9.15234375 C-4.42072194 1.63730442 -4.42072194 1.63730442 0 0 Z M-23 21 C-22.67 21.66 -22.34 22.32 -22 23 C-23.32 23.33 -24.64 23.66 -26 24 C-25.01 23.01 -24.02 22.02 -23 21 Z " fill="#3FAAD3" transform="translate(224,78)"/>
<path d="M0 0 C0.66 0.33 1.32 0.66 2 1 C-4.38661221 7.02202214 -10.86640473 12.51523326 -17.953125 17.7109375 C-21.11919896 20.08955204 -24.16160595 22.57276193 -27.1875 25.125 C-32.03271497 29.21055676 -36.96075565 33.15693991 -42 37 C-42.66 36.67 -43.32 36.34 -44 36 C-41.77772959 34.0333358 -39.54782865 32.07672551 -37.3125 30.125 C-36.68666016 29.56941406 -36.06082031 29.01382812 -35.41601562 28.44140625 C-32.09990025 25.55933739 -29.28736977 23.29522834 -25 22 C-25 21.34 -25 20.68 -25 20 C-23.09589414 18.39861367 -21.1875174 16.91068219 -19.1875 15.4375 C-17.99761143 14.54311029 -16.80882962 13.64724648 -15.62109375 12.75 C-15.01765137 12.29496094 -14.41420898 11.83992188 -13.79248047 11.37109375 C-6.63831704 5.97906973 -6.63831704 5.97906973 0 0 Z " fill="#B7BAD0" transform="translate(105,357)"/>
<path d="M0 0 C0.33 0 0.66 0 1 0 C1 22.44 1 44.88 1 68 C3.97 67.01 3.97 67.01 7 66 C6.67 66.99 6.34 67.98 6 69 C3.03 69.495 3.03 69.495 0 70 C0 46.9 0 23.8 0 0 Z " fill="#303463" transform="translate(54,328)"/>
<path d="M0 0 C2 2 2 2 2.24291992 4.36328125 C2.23675659 5.82314453 2.23675659 5.82314453 2.23046875 7.3125 C2.22853516 8.38886719 2.22660156 9.46523438 2.22460938 10.57421875 C2.20624023 12.26998047 2.20624023 12.26998047 2.1875 14 C2.18685547 15.09957031 2.18621094 16.19914062 2.18554688 17.33203125 C2.08806426 35.59377409 2.08806426 35.59377409 -0.75 39.26171875 C-1.4925 39.73222656 -2.235 40.20273437 -3 40.6875 C-3.80308594 41.22890625 -4.60617188 41.7703125 -5.43359375 42.328125 C-6.70396484 43.15570313 -6.70396484 43.15570313 -8 44 C-9.69885355 45.29777083 -11.38693662 46.60979526 -13.0625 47.9375 C-14.19365234 48.81728516 -14.19365234 48.81728516 -15.34765625 49.71484375 C-16.16556641 50.35099609 -16.16556641 50.35099609 -17 51 C-17.66 50.67 -18.32 50.34 -19 50 C-17.87777151 48.99689073 -16.75196391 47.99778623 -15.625 47 C-14.92874512 46.36835938 -14.23249023 45.73671875 -13.51513672 45.0859375 C-11 43 -11 43 -8.40039062 41.4921875 C-4.87910013 39.31796786 -1.69708062 37.28444502 -0.43426514 33.14599609 C0.43171061 27.7927488 0.25027782 22.4031459 0.125 17 C0.1230557 15.35025951 0.12561845 13.7005072 0.1328125 12.05078125 C0.14059675 8.03183766 0.08709822 4.01796158 0 0 Z " fill="#A7ADBB" transform="translate(126,306)"/>
<path d="M0 0 C0.99 0.33 1.98 0.66 3 1 C3 12.22 3 23.44 3 35 C2.01 35.495 2.01 35.495 1 36 C0.67 24.12 0.34 12.24 0 0 Z " fill="#111944" transform="translate(122,226)"/>
<path d="M0 0 C3.39672268 0.45725113 5.24234171 1.7959627 7.75 4.0625 C8.67039062 4.88427734 8.67039062 4.88427734 9.609375 5.72265625 C10.29773438 6.35494141 10.29773438 6.35494141 11 7 C8 7 8 7 1 2 C1 16.19 1 30.38 1 45 C0.67 45 0.34 45 0 45 C-0.16784025 38.75220534 -0.32780106 32.50424527 -0.48217773 26.25610352 C-0.53568206 24.12877795 -0.59101764 22.00149764 -0.64819336 19.87426758 C-0.72986981 16.8238298 -0.80504681 13.77329203 -0.87890625 10.72265625 C-0.90594131 9.76537125 -0.93297638 8.80808624 -0.96083069 7.8217926 C-0.98092697 6.94095505 -1.00102325 6.06011749 -1.02172852 5.15258789 C-1.04171402 4.37315323 -1.06169952 3.59371857 -1.08229065 2.79066467 C-1 1 -1 1 0 0 Z " fill="#97C7DC" transform="translate(53,36)"/>
<path d="M0 0 C0.33 0 0.66 0 1 0 C1 12.21 1 24.42 1 37 C1.66 37.33 2.32 37.66 3 38 C1.68 38 0.36 38 -1 38 C-1.10768094 25.28867976 -1.12089545 12.67012175 0 0 Z " fill="#AEB3C1" transform="translate(53,361)"/>
<path d="M0 0 C2.79305817 1.5039544 5.36024081 3.24016054 8 5 C8 5.99 8 6.98 8 8 C8.66 8 9.32 8 10 8 C10.66 8.66 11.32 9.32 12 10 C12.99 10.33 13.98 10.66 15 11 C15.66 10.67 16.32 10.34 17 10 C17 11.32 17 12.64 17 14 C14 15 14 15 10.5 13.375 C7.25496462 11.41431546 5.74428748 9.39677036 4 6 C1.99967627 4.99983813 0.16874252 4.50603992 -2 4 C-2 3.01 -2 2.02 -2 1 C-1.34 0.67 -0.68 0.34 0 0 Z " fill="#2D5691" transform="translate(238,366)"/>
<path d="M0 0 C0.33 0 0.66 0 1 0 C1 15.84 1 31.68 1 48 C0.34 48 -0.32 48 -1 48 C-1 47.34 -1 46.68 -1 46 C-1.66 46 -2.32 46 -3 46 C-3 45.01 -3 44.02 -3 43 C-2.01 42.505 -2.01 42.505 -1 42 C-0.67 28.14 -0.34 14.28 0 0 Z " fill="#2C5490" transform="translate(271,348)"/>
<path d="M0 0 C0.66 0 1.32 0 2 0 C2 0.66 2 1.32 2 2 C2.928125 2.37125 2.928125 2.37125 3.875 2.75 C6 4 6 4 6.875 5.9375 C8.52363667 8.96000056 10.92402005 9.66261741 14 11 C13.67 11.99 13.34 12.98 13 14 C9.21630223 13.409882 7.10931376 11.73554726 4.25 9.25 C3.45078125 8.57453125 2.6515625 7.8990625 1.828125 7.203125 C0 5 0 5 -0.265625 2.234375 C-0.17796875 1.49703125 -0.0903125 0.7596875 0 0 Z " fill="#2F5993" transform="translate(201,336)"/>
<path d="M0 0 C0.86625 0.7115625 0.86625 0.7115625 1.75 1.4375 C3.92582084 2.9484867 5.42602448 3.54036151 8 4 C8 5.32 8 6.64 8 8 C11.50538557 9.96301592 15.13351728 10.95902388 19 12 C19 12.99 19 13.98 19 15 C16.3125 15.875 16.3125 15.875 13 16 C10.5 13.375 10.5 13.375 9.29296875 11.68359375 C7.94585023 9.92949079 6.56962621 8.76917192 4.8125 7.4375 C1.98922485 4.99066154 1.009495 3.5332325 0 0 Z " fill="#5E72A2" transform="translate(155,268)"/>
<path d="M0 0 C0.33 0 0.66 0 1 0 C1 14.85 1 29.7 1 45 C-0.32 44.34 -1.64 43.68 -3 43 C-2.34 42.34 -1.68 41.68 -1 41 C-0.83678105 38.08206038 -0.79292009 35.25993333 -0.83984375 32.34375 C-0.84504532 31.48567749 -0.85024689 30.62760498 -0.85560608 29.74353027 C-0.87345661 26.99551675 -0.90463302 24.24787183 -0.9375 21.5 C-0.96508872 18.75216384 -0.98980169 16.00437986 -1.00868225 13.25646973 C-1.02096707 11.54475163 -1.03859742 9.8330622 -1.06199646 8.12145996 C-1.11174967 2.22349933 -1.11174967 2.22349933 0 0 Z " fill="#335187" transform="translate(179,252)"/>
<path d="M0 0 C0.99 0.33 1.98 0.66 3 1 C3.2475 1.763125 3.495 2.52625 3.75 3.3125 C5.60679725 7.30461409 8.07798432 8.07339581 12 10 C12.99 10.33 13.98 10.66 15 11 C16.1875 14.0625 16.1875 14.0625 17 17 C14.02879676 15.6300094 11.63345438 14.03719635 9.109375 11.9609375 C8.40039062 11.38085938 7.69140625 10.80078125 6.9609375 10.203125 C6.23132813 9.59984375 5.50171875 8.9965625 4.75 8.375 C4.00492188 7.76398438 3.25984375 7.15296875 2.4921875 6.5234375 C0.65864503 5.0189924 -1.17194246 3.51110107 -3 2 C-2.01 1.34 -1.02 0.68 0 0 Z " fill="#9FAFCC" transform="translate(240,370)"/>
<path d="M0 0 C0.598125 0.165 1.19625 0.33 1.8125 0.5 C4.11344336 1.1114124 4.11344336 1.1114124 7 1 C7 1.99 7 2.98 7 4 C11.34820378 8.22831331 11.34820378 8.22831331 17 10 C16.01 10.99 15.02 11.98 14 13 C4.08805031 5.67924528 4.08805031 5.67924528 0 2 C0 1.34 0 0.68 0 0 Z " fill="#3F629B" transform="translate(217,352)"/>
<path d="M0 0 C3.63289014 3.44838259 6.53888259 6.95673881 9.3125 11.125 C10.00988281 12.15882812 10.70726562 13.19265625 11.42578125 14.2578125 C13 17 13 17 13 20 C11.68 19.67 10.36 19.34 9 19 C8.67 17.35 8.34 15.7 8 14 C7.34 14 6.68 14 6 14 C5.34 11.69 4.68 9.38 4 7 C3.34 7 2.68 7 2 7 C1.34 4.69 0.68 2.38 0 0 Z " fill="#7BAECD" transform="translate(132,105)"/>
<path d="M0 0 C1.65 0 3.3 0 5 0 C5.0825 0.61875 5.165 1.2375 5.25 1.875 C5.80583476 4.16088794 5.80583476 4.16088794 7.9375 5.1875 C8.618125 5.455625 9.29875 5.72375 10 6 C10.66 6.33 11.32 6.66 12 7 C12 7.66 12 8.32 12 9 C11.01 9.33 10.02 9.66 9 10 C8.38125 9.360625 7.7625 8.72125 7.125 8.0625 C5.17402388 5.96116416 5.17402388 5.96116416 3 5 C3 5.66 3 6.32 3 7 C2.01 7 1.02 7 0 7 C0 4.69 0 2.38 0 0 Z " fill="#40A4D2" transform="translate(64,48)"/>
<path d="M0 0 C0.66 0.33 1.32 0.66 2 1 C2 7.93 2 14.86 2 22 C-3 21 -3 21 -4.8125 18.9375 C-5.204375 18.298125 -5.59625 17.65875 -6 17 C-3 18.5 -3 18.5 0 20 C0 13.4 0 6.8 0 0 Z " fill="#C1CDDF" transform="translate(273,378)"/>
<path d="M0 0 C3.34116462 1.07394577 4.47880121 2.57854243 6.0625 5.5625 C7.63488132 9.2511691 7.63488132 9.2511691 11 10 C11.33 11.98 11.66 13.96 12 16 C7.98869439 14.47317422 6.21413108 11.9985939 3.75 8.5625 C2.69039062 7.11037109 2.69039062 7.11037109 1.609375 5.62890625 C0 3 0 3 0 0 Z " fill="#324D82" transform="translate(149,256)"/>
<path d="M0 0 C4.21164472 3.80807189 7.29367666 8.39643778 10.5625 13 C11.70937939 14.60434972 12.85650645 16.20852243 14.00390625 17.8125 C14.75909546 18.87404297 14.75909546 18.87404297 15.52954102 19.95703125 C16.99393539 21.99157419 18.48933769 23.99964374 20 26 C19.67 26.66 19.34 27.32 19 28 C14.29468624 22.18462983 9.89990113 16.1542044 5.5625 10.0625 C5.01819336 9.30461182 4.47388672 8.54672363 3.91308594 7.76586914 C3.40680664 7.05035889 2.90052734 6.33484863 2.37890625 5.59765625 C1.9207251 4.95320557 1.46254395 4.30875488 0.99047852 3.64477539 C0 2 0 2 0 0 Z " fill="#ACBCD4" transform="translate(135,240)"/>
<path d="M0 0 C3.82933603 0.606981 6.17065621 2.37930444 9.1875 4.75 C10.06792969 5.42546875 10.94835937 6.1009375 11.85546875 6.796875 C14.24562389 9.25233493 14.70032307 10.63891752 15 14 C14.34 14 13.68 14 13 14 C13 13.01 13 12.02 13 11 C11.68 11 10.36 11 9 11 C8.74476562 10.40574219 8.48953125 9.81148437 8.2265625 9.19921875 C6.88103839 6.78670259 5.52025784 5.52958909 3.375 3.8125 C2.23489161 2.89343303 1.10537887 1.96055651 0 1 C0 0.67 0 0.34 0 0 Z " fill="#3FA0C8" transform="translate(81,60)"/>
<path d="M0 0 C4.64228526 1.54742842 7.14891119 5.12308519 10 9 C10.72045764 10.9812585 11.40781343 12.97669589 12 15 C12.99 15.33 13.98 15.66 15 16 C14.34 16 13.68 16 13 16 C12.67 16.66 12.34 17.32 12 18 C11.38511719 17.09636719 10.77023438 16.19273437 10.13671875 15.26171875 C9.32047996 14.07019776 8.50406442 12.87879785 7.6875 11.6875 C7.28337891 11.09259766 6.87925781 10.49769531 6.46289062 9.88476562 C4.82977746 7.50812127 3.25015514 5.25015514 1.20703125 3.20703125 C0.80871094 2.80871094 0.41039063 2.41039062 0 2 C0 1.34 0 0.68 0 0 Z " fill="#40679E" transform="translate(125,225)"/>
<path d="M0 0 C-0.1875 2.3125 -0.1875 2.3125 -1 5 C-3.5 6.6875 -3.5 6.6875 -6 8 C-6.33 8.66 -6.66 9.32 -7 10 C-4.69 10 -2.38 10 0 10 C0 10.33 0 10.66 0 11 C-3.63 11.33 -7.26 11.66 -11 12 C-9.32854411 8.65708821 -7.9095707 6.50671224 -5.5 3.75 C-4.8915625 3.04359375 -4.283125 2.3371875 -3.65625 1.609375 C-2 0 -2 0 0 0 Z " fill="#92BFD3" transform="translate(180,115)"/>
<path d="M0 0 C0.556875 0.33 1.11375 0.66 1.6875 1 C4.30284522 2.1309601 6.1806646 2.15662974 9 2 C9.350625 2.86625 9.70125 3.7325 10.0625 4.625 C12.41946575 8.73068227 15.29552831 11.13791503 19 14 C15.45193877 14 14.87359008 13.38405604 12.20703125 11.19140625 C11.1387207 10.31838867 11.1387207 10.31838867 10.04882812 9.42773438 C9.31083984 8.81220703 8.57285156 8.19667969 7.8125 7.5625 C7.06291016 6.95083984 6.31332031 6.33917969 5.54101562 5.70898438 C1.51979997 2.39761025 1.51979997 2.39761025 0 1 C0 0.67 0 0.34 0 0 Z " fill="#A4B9D4" transform="translate(207,347)"/>
<path d="M0 0 C0.99 0.33 1.98 0.66 3 1 C3.05386629 3.12472576 3.09273071 5.24983652 3.125 7.375 C3.14820313 8.55835937 3.17140625 9.74171875 3.1953125 10.9609375 C3 14 3 14 1 16 C0 15 0 15 -0.09765625 11.62109375 C-0.09098369 10.22652923 -0.07902532 8.83198257 -0.0625 7.4375 C-0.05798828 6.72658203 -0.05347656 6.01566406 -0.04882812 5.28320312 C-0.03700864 3.52209987 -0.01907263 1.76103964 0 0 Z " fill="#3693C1" transform="translate(55,118)"/>
<path d="M0 0 C4.19659671 1.97756806 7.56760526 4.63224306 11.1875 7.5 C11.82880859 7.99886719 12.47011719 8.49773437 13.13085938 9.01171875 C17.8741085 12.74821701 17.8741085 12.74821701 19 15 C18.46375 14.71125 17.9275 14.4225 17.375 14.125 C14.95914247 12.88559892 14.95914247 12.88559892 12 12.25 C8.08995624 10.6208151 7.17369189 8.57607376 5 5 C3.3707726 3.29671681 1.71358643 1.61838719 0 0 Z " fill="#9ACBE4" transform="translate(87,62)"/>
<path d="M0 0 C1.32 0.33 2.64 0.66 4 1 C4 4.3 4 7.6 4 11 C3.34 11 2.68 11 2 11 C2 8.03 2 5.06 2 2 C1.38511719 2.5053125 0.77023437 3.010625 0.13671875 3.53125 C-0.67152344 4.1809375 -1.47976563 4.830625 -2.3125 5.5 C-3.11300781 6.1496875 -3.91351563 6.799375 -4.73828125 7.46875 C-7 9 -7 9 -10 9 C-8.43122326 7.4641556 -6.84443846 5.94668669 -5.25 4.4375 C-4.36828125 3.59058594 -3.4865625 2.74367187 -2.578125 1.87109375 C-1.72734375 1.25363281 -0.8765625 0.63617188 0 0 Z " fill="#B1DCEC" transform="translate(271,35)"/>
<path d="M0 0 C0.33 0 0.66 0 1 0 C1 7.59 1 15.18 1 23 C0.01 22.67 -0.98 22.34 -2 22 C-1.90912109 21.12601562 -1.90912109 21.12601562 -1.81640625 20.234375 C-1.12772567 13.49590043 -0.54522381 6.75149484 0 0 Z " fill="#131A4E" transform="translate(124,319)"/>
<path d="M0 0 C0.8353125 0.556875 0.8353125 0.556875 1.6875 1.125 C4.05716353 2.29515863 4.05716353 2.29515863 6.75 1.125 C7.4925 0.75375 8.235 0.3825 9 0 C9.33 0.99 9.66 1.98 10 3 C10.66 3.66 11.32 4.32 12 5 C11.34 5 10.68 5 10 5 C10.33 6.32 10.66 7.64 11 9 C8.03469503 7.64199529 5.70868729 6.07571737 3.25 3.9375 C2.63640625 3.41027344 2.0228125 2.88304687 1.390625 2.33984375 C0.93171875 1.89769531 0.4728125 1.45554687 0 1 C0 0.67 0 0.34 0 0 Z " fill="#7993BB" transform="translate(226,362)"/>
<path d="M0 0 C4.39186828 3.15739719 7.24869752 6.69147513 10.3125 11.0625 C10.76689453 11.68705078 11.22128906 12.31160156 11.68945312 12.95507812 C15 17.61971335 15 17.61971335 15 21 C0 3.26213592 0 3.26213592 0 0 Z " fill="#B5C2D5" transform="translate(162,277)"/>
<path d="M0 0 C1.485 0.99 1.485 0.99 3 2 C3.34057617 4.98095703 3.34057617 4.98095703 3.29296875 8.7578125 C3.28872391 9.42086395 3.28447906 10.08391541 3.28010559 10.76705933 C3.26329971 12.88678441 3.22564701 15.00556188 3.1875 17.125 C3.17245549 18.56118419 3.15876668 19.99738328 3.14648438 21.43359375 C3.1133909 24.95603764 3.0615968 28.47792636 3 32 C2.67 32 2.34 32 2 32 C1.97494385 31.24380371 1.9498877 30.48760742 1.92407227 29.70849609 C1.80763114 26.26384541 1.68512338 22.81943592 1.5625 19.375 C1.52318359 18.18519531 1.48386719 16.99539062 1.44335938 15.76953125 C1.40146484 14.61582031 1.35957031 13.46210938 1.31640625 12.2734375 C1.27974854 11.21560059 1.24309082 10.15776367 1.20532227 9.06787109 C0.99937941 5.99072727 0.55819179 3.0313191 0 0 Z " fill="#4075A5" transform="translate(177,170)"/>
<path d="M0 0 C0.33 0.99 0.66 1.98 1 3 C-1.12064505 6.18096758 -1.42674896 6.39523247 -4.8125 7.4375 C-8.49756988 8.69941828 -11.08754206 10.36058499 -14 13 C-14.66 12.67 -15.32 12.34 -16 12 C-8.23685486 4.79549309 -8.23685486 4.79549309 -3 3 C-1.22722741 1.47992158 -1.22722741 1.47992158 0 0 Z " fill="#74BFDC" transform="translate(229,72)"/>
<path d="M0 0 C2.375 1.0625 2.375 1.0625 5 3 C6.3125 6.6875 6.3125 6.6875 7 10 C5.35 10.33 3.7 10.66 2 11 C1 5.25 1 5.25 1 3 C0.67 2.01 0.34 1.02 0 0 Z " fill="#12234C" transform="translate(87,178)"/>
<path d="M0 0 C3.90270266 2.927027 4.59754024 3.67574907 6 8 C4.02 8.99 2.04 9.98 0 11 C0 7.37 0 3.74 0 0 Z " fill="#111C44" transform="translate(55,136)"/>
<path d="M0 0 C1.11375 0.598125 2.2275 1.19625 3.375 1.8125 C4.00148438 2.14894531 4.62796875 2.48539062 5.2734375 2.83203125 C7 4 7 4 9 7 C8.01 7.66 7.02 8.32 6 9 C4.68 8.67 3.36 8.34 2 8 C1.34 5.36 0.68 2.72 0 0 Z " fill="#409AC9" transform="translate(112,83)"/>
<path d="M0 0 C0.33 0 0.66 0 1 0 C1 6.6 1 13.2 1 20 C2.98 19.34 4.96 18.68 7 18 C6.67 18.99 6.34 19.98 6 21 C4.02 21.33 2.04 21.66 0 22 C0 14.74 0 7.48 0 0 Z " fill="#5A5D80" transform="translate(54,376)"/>
<path d="M0 0 C0.33 0.99 0.66 1.98 1 3 C-0.24839499 4.105981 -1.49879234 5.20970201 -2.75 6.3125 C-3.44609375 6.92738281 -4.1421875 7.54226562 -4.859375 8.17578125 C-6.85114506 9.87314734 -8.88898915 11.45477809 -11 13 C-11.66 12.67 -12.32 12.34 -13 12 C-4.738041 3.55353075 -4.738041 3.55353075 0 0 Z " fill="#4FABCF" transform="translate(201,96)"/>
<path d="M0 0 C0.66 0 1.32 0 2 0 C0.52202738 3.67056937 -1.47615477 5.41085783 -4.625 7.75 C-5.44226563 8.36359375 -6.25953125 8.9771875 -7.1015625 9.609375 C-7.72804688 10.06828125 -8.35453125 10.5271875 -9 11 C-9.66 10.34 -10.32 9.68 -11 9 C-9.6875 7.5 -9.6875 7.5 -8 6 C-7.01 6 -6.02 6 -5 6 C-5 5.34 -5 4.68 -5 4 C-4.34 4 -3.68 4 -3 4 C-3 3.34 -3 2.68 -3 2 C-2.01 2 -1.02 2 0 2 C0 1.34 0 0.68 0 0 Z " fill="#242857" transform="translate(72,381)"/>
<path d="M0 0 C2.48063781 10.37357631 2.48063781 10.37357631 1 16 C0.67 16 0.34 16 0 16 C0 11.71 0 7.42 0 3 C-3.63 2.67 -7.26 2.34 -11 2 C-11 1.67 -11 1.34 -11 1 C-7.26616906 0.30533378 -3.79269127 -0.05168915 0 0 Z " fill="#3398C7" transform="translate(202,116)"/>
<path d="M0 0 C5.03985731 0.44469329 7.37634988 2.71343362 11 6 C8.04725901 6 6.50941597 5.56108169 3.8125 4.5 C3.09707031 4.2215625 2.38164063 3.943125 1.64453125 3.65625 C1.10183594 3.4396875 0.55914062 3.223125 0 3 C0 2.01 0 1.02 0 0 Z " fill="#82C1DD" transform="translate(76,55)"/>
<path d="M0 0 C0.33 0 0.66 0 1 0 C1 4.62 1 9.24 1 14 C0.01 14.33 -0.98 14.66 -2 15 C-2 13.68 -2 12.36 -2 11 C-2.66 10.67 -3.32 10.34 -4 10 C-3.01 9.67 -2.02 9.34 -1 9 C-0.67 6.03 -0.34 3.06 0 0 Z " fill="#22417F" transform="translate(178,279)"/>
<path d="M0 0 C0.33 0 0.66 0 1 0 C1 5.61 1 11.22 1 17 C0.34 17 -0.32 17 -1 17 C-1 16.34 -1 15.68 -1 15 C-1.66 15 -2.32 15 -3 15 C-3 14.01 -3 13.02 -3 12 C-2.34 11.67 -1.68 11.34 -1 11 C-0.5316735 8.41394668 -0.5316735 8.41394668 -0.375 5.4375 C-0.30023438 4.42558594 -0.22546875 3.41367187 -0.1484375 2.37109375 C-0.09945313 1.58863281 -0.05046875 0.80617188 0 0 Z " fill="#264B89" transform="translate(271,379)"/>
<path d="M0 0 C0.33 0.99 0.66 1.98 1 3 C1.66 3.66 2.32 4.32 3 5 C1.71211992 5.53012738 0.41953322 6.0488329 -0.875 6.5625 C-1.95394531 6.99755859 -1.95394531 6.99755859 -3.0546875 7.44140625 C-5 8 -5 8 -7 7 C-6 5 -6 5 -3 4 C-1.31461399 2.00334686 -1.31461399 2.00334686 0 0 Z " fill="#34A4D1" transform="translate(185,113)"/>
<path d="M0 0 C2.93200474 2.85276137 5.64315404 5.65079784 8 9 C7.67 9.66 7.34 10.32 7 11 C3.45756544 9.13556076 1.29293437 7.87880311 0 4 C0 2.68 0 1.36 0 0 Z " fill="#8BB9D7" transform="translate(146,125)"/>
<path d="M0 0 C0.93972656 0.23396484 0.93972656 0.23396484 1.8984375 0.47265625 C3.12433594 0.76462891 3.12433594 0.76462891 4.375 1.0625 C5.59316406 1.35833984 5.59316406 1.35833984 6.8359375 1.66015625 C9.04161284 2.22109319 9.04161284 2.22109319 11 1 C11 2.32 11 3.64 11 5 C8 6 8 6 6.2109375 5.29296875 C5.60507813 4.92816406 4.99921875 4.56335938 4.375 4.1875 C3.76398438 3.83042969 3.15296875 3.47335937 2.5234375 3.10546875 C1 2 1 2 0 0 Z " fill="#3A5E98" transform="translate(244,375)"/>
<path d="M0 0 C3.41021743 0.78697325 6.68885166 1.87119943 10 3 C8.93453047 5.13093906 7.70840281 6.36587557 6 8 C5.87625 7.071875 5.87625 7.071875 5.75 6.125 C5.20005805 3.8234856 5.20005805 3.8234856 3 2.875 C2.34 2.58625 1.68 2.2975 1 2 C0.67 1.34 0.34 0.68 0 0 Z " fill="#2F5395" transform="translate(148,254)"/>
<path d="M0 0 C1.9375 0.75 1.9375 0.75 4 2 C4.75 4.125 4.75 4.125 5 6 C2.69 6 0.38 6 -2 6 C-2 4.68 -2 3.36 -2 2 C-1.34 2 -0.68 2 0 2 C0 1.34 0 0.68 0 0 Z " fill="#6BB0D5" transform="translate(121,90)"/>
<path d="M0 0 C0.66 0.33 1.32 0.66 2 1 C-5.29840547 7.33485194 -5.29840547 7.33485194 -9 10 C-9.66 9.67 -10.32 9.34 -11 9 C-9.73113036 7.87278564 -8.45982438 6.74831342 -7.1875 5.625 C-6.47980469 4.99851562 -5.77210937 4.37203125 -5.04296875 3.7265625 C-3 2 -3 2 0 0 Z " fill="#B5B9CD" transform="translate(118,347)"/>
<path d="M0 0 C0.66 0.33 1.32 0.66 2 1 C1.67 1.33 1.34 1.66 1 2 C2.66611905 2.042721 4.33382885 2.04063832 6 2 C6.33 1.67 6.66 1.34 7 1 C8.66617115 0.95936168 10.33388095 0.957279 12 1 C11.01 1.33 10.02 1.66 9 2 C9 2.66 9 3.32 9 4 C5.37 4 1.74 4 -2 4 C-1.34 2.68 -0.68 1.36 0 0 Z " fill="#6399BF" transform="translate(175,121)"/>
<path d="M0 0 C0.33 0 0.66 0 1 0 C1 5.61 1 11.22 1 17 C-0.32 16.34 -1.64 15.68 -3 15 C-2.34 14.34 -1.68 13.68 -1 13 C-0.53513282 9.87803664 -0.53513282 9.87803664 -0.375 6.375 C-0.30023438 5.18648438 -0.22546875 3.99796875 -0.1484375 2.7734375 C-0.09945312 1.85820312 -0.05046875 0.94296875 0 0 Z " fill="#314B7D" transform="translate(179,280)"/>
<path d="M0 0 C3.39417765 3.12621626 5.6062718 5.56541027 7 10 C6.01 9.67 5.02 9.34 4 9 C4 8.34 4 7.68 4 7 C3.34 7 2.68 7 2 7 C1.34 4.69 0.68 2.38 0 0 Z " fill="#A2CBE3" transform="translate(132,105)"/>
<path d="M0 0 C0.99 0.33 1.98 0.66 3 1 C4.625 4.4375 4.625 4.4375 6 8 C6.33 8.66 6.66 9.32 7 10 C3.64501065 8.61172854 1.84949545 7.14414226 0 4 C0 2.68 0 1.36 0 0 Z " fill="#667FAB" transform="translate(255,381)"/>
<path d="M0 0 C2.93200474 2.85276137 5.64315404 5.65079784 8 9 C7.67 9.66 7.34 10.32 7 11 C4.625 10 4.625 10 2 8 C0.95231959 5.33078407 0.51315454 2.84567517 0 0 Z " fill="#97B5D2" transform="translate(169,157)"/>
<path d="M0 0 C-1.24420647 0.5345256 -2.49570936 1.05208611 -3.75 1.5625 C-4.44609375 1.85253906 -5.1421875 2.14257812 -5.859375 2.44140625 C-8.30012784 3.07831803 -9.6403655 2.80248831 -12 2 C-8.51900375 -1.48099625 -4.51091121 -1.29859565 0 0 Z " fill="#458DAF" transform="translate(200,119)"/>
<path d="M0 0 C5.57142857 5.14285714 5.57142857 5.14285714 6 9 C5.34 8.67 4.68 8.34 4 8 C4 7.34 4 6.68 4 6 C2.35 5.67 0.7 5.34 -1 5 C-0.67 3.35 -0.34 1.7 0 0 Z " fill="#97C7DF" transform="translate(126,96)"/>
<path d="M0 0 C0.6875 2.0625 0.6875 2.0625 1 4 C-1.375 3.6875 -1.375 3.6875 -4 3 C-4.66 2.01 -5.32 1.02 -6 0 C-3 -1 -3 -1 0 0 Z " fill="#708BB3" transform="translate(243,371)"/>
<path d="M0 0 C3.3 0.33 6.6 0.66 10 1 C10 1.33 10 1.66 10 2 C6.37 2.33 2.74 2.66 -1 3 C-0.67 2.01 -0.34 1.02 0 0 Z " fill="#9DBBCE" transform="translate(170,124)"/>
<path d="M0 0 C0.66 0.33 1.32 0.66 2 1 C-2.75 5.875 -2.75 5.875 -5 7 C-5 5.68 -5 4.36 -5 3 C-2.625 1.1875 -2.625 1.1875 0 0 Z " fill="#2DA7D9" transform="translate(217,84)"/>
<path d="M0 0 C0.86625 0.4640625 0.86625 0.4640625 1.75 0.9375 C3.84294184 1.92583364 5.74535275 2.5168613 8 3 C7.01 3.99 6.02 4.98 5 6 C3.31237149 4.3545622 1.6459651 2.68711423 0 1 C0 0.67 0 0.34 0 0 Z " fill="#345A95" transform="translate(226,359)"/>
<path d="M0 0 C2.875 -0.125 2.875 -0.125 6 0 C6.66 0.66 7.32 1.32 8 2 C7.67 2.66 7.34 3.32 7 4 C3.73045798 3.43628586 2.17424117 2.50037734 0 0 Z " fill="#3A5D90" transform="translate(207,346)"/>
<path d="M0 0 C0.66 0 1.32 0 2 0 C2 0.99 2 1.98 2 3 C2.66 3 3.32 3 4 3 C4.33 4.98 4.66 6.96 5 9 C2.33264727 6.51047079 0.44253657 4.36591866 -1 1 C-0.67 0.67 -0.34 0.34 0 0 Z " fill="#415D8E" transform="translate(144,249)"/>
<path d="M0 0 C-4.75 4 -4.75 4 -7 4 C-6.625 2.0625 -6.625 2.0625 -6 0 C-3.50907189 -1.24546405 -2.58919267 -0.7767578 0 0 Z " fill="#292E5F" transform="translate(92,369)"/>
<path d="M0 0 C0.99 0.33 1.98 0.66 3 1 C0.36 2.98 -2.28 4.96 -5 7 C-4.67 5.68 -4.34 4.36 -4 3 C-3.34 3 -2.68 3 -2 3 C-2 2.34 -2 1.68 -2 1 C-1.34 0.67 -0.68 0.34 0 0 Z " fill="#2A315F" transform="translate(111,350)"/>
<path d="M0 0 C2.5 2.3125 2.5 2.3125 5 5 C5 5.99 5 6.98 5 8 C2.5 6.25 2.5 6.25 0 4 C0 2.68 0 1.36 0 0 Z " fill="#97BBD4" transform="translate(163,149)"/>
<path d="M0 0 C1.70884005 1.62339805 3.37446717 3.29319053 5 5 C5 5.66 5 6.32 5 7 C3.68 6.67 2.36 6.34 1 6 C0.67 4.02 0.34 2.04 0 0 Z " fill="#89B1D0" transform="translate(158,142)"/>
<path d="M0 0 C2.475 0.495 2.475 0.495 5 1 C5.33 2.65 5.66 4.3 6 6 C3.37812506 4.95125002 2.20628639 4.35068687 0.75 1.875 C0.5025 1.25625 0.255 0.6375 0 0 Z " fill="#3471A7" transform="translate(106,200)"/>
<path d="M0 0 C1.98 0.99 1.98 0.99 4 2 C3.67 3.65 3.34 5.3 3 7 C2.34 6.67 1.68 6.34 1 6 C0.375 2.9375 0.375 2.9375 0 0 Z " fill="#43A2D2" transform="translate(97,73)"/>
</svg>
